<svg width="929" height="115" viewBox="0 0 929 115" fill="none" xmlns="http://www.w3.org/2000/svg">
<path d="M49.6797 88.29C58.8997 88.29 67.2497 91.8399 74.1297 97.8299C75.0397 98.6299 76.4197 98.5599 77.2797 97.6999L79.6597 95.3199L82.0097 92.9699C82.8697 92.1099 82.9297 90.7299 82.1397 89.8199C76.1497 82.9399 72.5996 74.59 72.5996 65.37C72.5996 56.15 76.1397 47.8 82.1397 40.92C82.9397 40.01 82.8697 38.6199 82.0097 37.7699L79.6297 35.3999L77.2897 33.05C76.4397 32.19 75.0597 32.1199 74.1497 32.9099C67.2597 38.8499 58.7696 42.37 49.5896 42.37C40.4096 42.37 32.1096 38.8599 25.2396 32.9099C24.3296 32.1199 22.9496 32.19 22.0996 33.04L19.7396 35.3999L17.3696 37.7699C16.5096 38.6299 16.4496 40.01 17.2396 40.92C23.2396 47.8 26.7797 56.15 26.7797 65.37C26.7797 74.59 23.2296 82.9499 17.2196 89.8399C16.4296 90.7399 16.4397 92.0899 17.2597 92.9699L19.5996 95.4599L22.0896 97.8C22.9596 98.62 24.3096 98.6299 25.2196 97.8399C32.1096 91.8399 40.4597 88.2799 49.6897 88.2799L49.6797 88.29Z" fill="#0639DE"/>
<path d="M79.7299 75.6899C78.2299 75.6899 76.7799 75.8699 75.3799 76.1899C75.8199 77.6199 76.3299 79.0099 76.9299 80.3799C77.8399 80.2099 78.7799 80.11 79.7299 80.11C88.1199 80.11 94.9498 86.94 94.9498 95.33C94.9498 103.72 88.1199 110.55 79.7299 110.55C71.3399 110.55 64.5099 103.72 64.5099 95.33C64.5099 94.42 64.5999 93.54 64.7599 92.67C63.3899 92.06 61.9899 91.54 60.5599 91.1C60.2599 92.46 60.0898 93.8699 60.0898 95.3199C60.0898 106.15 68.8998 114.95 79.7198 114.95C90.5398 114.95 99.3499 106.14 99.3499 95.3199C99.3499 84.4999 90.5398 75.6899 79.7198 75.6899H79.7299Z" fill="#0639DE"/>
<path d="M34.6 92.67C34.75 93.53 34.85 94.42 34.85 95.33C34.85 103.72 28.02 110.55 19.63 110.55C11.24 110.55 4.41003 103.72 4.41003 95.33C4.41003 86.94 11.24 80.11 19.63 80.11C20.59 80.11 21.5201 80.2099 22.4301 80.3799C23.0301 79.0199 23.54 77.6199 23.98 76.1899C22.58 75.8699 21.13 75.6899 19.63 75.6899C8.8 75.6899 0 84.4999 0 95.3199C0 106.14 8.81001 114.95 19.63 114.95C30.45 114.95 39.26 106.14 39.26 95.3199C39.26 93.8699 39.09 92.46 38.79 91.1C37.36 91.54 35.96 92.06 34.59 92.67H34.6Z" fill="#0639DE"/>
<path d="M79.7296 15.79C68.8996 15.79 60.0996 24.6 60.0996 35.42C60.0996 36.84 60.2597 38.2201 60.5497 39.5601C61.9797 39.1201 63.3796 38.6 64.7596 38C64.6196 37.16 64.5197 36.3 64.5197 35.42C64.5197 27.03 71.3496 20.2 79.7396 20.2C88.1296 20.2 94.9596 27.03 94.9596 35.42C94.9596 43.81 88.1296 50.64 79.7396 50.64C78.7796 50.64 77.8497 50.5401 76.9397 50.3701C76.3397 51.7301 75.8296 53.1301 75.3896 54.5601C76.7896 54.8801 78.2396 55.0601 79.7396 55.0601C90.5696 55.0601 99.3696 46.2501 99.3696 35.4301C99.3696 24.6101 90.5596 15.8 79.7396 15.8L79.7296 15.79Z" fill="#0639DE"/>
<path d="M23.97 54.5601C23.53 53.1301 23.02 51.7401 22.42 50.3701C21.51 50.5401 20.58 50.64 19.62 50.64C11.23 50.64 4.40002 43.81 4.40002 35.42C4.40002 27.03 11.23 20.2 19.62 20.2C28.01 20.2 34.84 27.03 34.84 35.42C34.84 36.32 34.75 37.19 34.6 38.04C35.97 38.64 37.37 39.16 38.8 39.59C39.09 38.24 39.26 36.85 39.26 35.41C39.26 24.58 30.45 15.78 19.63 15.78C8.81001 15.78 0 24.59 0 35.41C0 46.23 8.81001 55.04 19.63 55.04C21.13 55.04 22.58 54.86 23.98 54.54L23.97 54.5601Z" fill="#0639DE"/>
<path d="M149.36 31.32H245.05V43.6801H161.72V59.16H227.06V71.6201H161.72V99.46H149.36V31.3101V31.32Z" fill="#0639DE"/>
<path d="M271.59 87.1101H354.82V99.4701H259.13V31.3201H271.59V87.1101Z" fill="#0639DE"/>
<path d="M434.23 31.3201H446.59V41.4701C446.59 46.1601 445.7 50.5801 443.93 54.7401C442.15 58.9001 439.72 62.5101 436.64 65.6001C433.56 68.6801 429.94 71.1101 425.78 72.8901C421.62 74.6701 417.2 75.5501 412.51 75.5501H401.85V99.4701H389.49V75.5501H378.83C374.14 75.5501 369.72 74.6601 365.56 72.8901C361.4 71.1101 357.79 68.6901 354.7 65.6001C351.62 62.5201 349.19 58.9001 347.41 54.7401C345.63 50.5901 344.75 46.1601 344.75 41.4701V31.3201H357.11V41.4701C357.11 44.4901 357.68 47.3001 358.82 49.9101C359.96 52.5201 361.52 54.8201 363.49 56.8001C365.47 58.7801 367.76 60.3401 370.38 61.4701C372.99 62.6101 375.81 63.1801 378.82 63.1801H412.49C415.51 63.1801 418.32 62.6101 420.93 61.4701C423.54 60.3301 425.84 58.7701 427.82 56.8001C429.8 54.8201 431.35 52.5301 432.49 49.9101C433.63 47.3001 434.2 44.4801 434.2 41.4701V31.3201H434.23Z" fill="#0639DE"/>
<path d="M550.03 31.3201V43.7801H511.53V99.4701H499.17V43.7801H460.67V31.3201H550.03Z" fill="#0639DE"/>
<path d="M564.11 31.32H659.7V43.6801H576.47V59.16H641.71V71.6201H576.47V87.1H659.7V99.46H564.11V31.3101V31.32Z" fill="#0639DE"/>
<path d="M673.77 65.4001C673.77 60.7101 674.669 56.2901 676.479 52.1301C678.289 47.9801 680.729 44.3601 683.819 41.2701C686.899 38.1901 690.52 35.7601 694.68 33.9801C698.83 32.2001 703.259 31.3201 707.949 31.3201H769.469V43.6801H707.949C704.929 43.6801 702.12 44.2501 699.51 45.3901C696.9 46.5301 694.6 48.0901 692.62 50.0601C690.64 52.0301 689.079 54.3301 687.949 56.9501C686.809 59.5601 686.24 62.3801 686.24 65.3901C686.24 68.4001 686.809 71.2201 687.949 73.8301C689.089 76.4401 690.65 78.7401 692.62 80.7201C694.6 82.7001 696.89 84.2601 699.51 85.3901C702.12 86.5301 704.939 87.1001 707.949 87.1001H769.469V99.4601H707.949C703.259 99.4601 698.84 98.5701 694.68 96.8001C690.52 95.0201 686.909 92.6001 683.819 89.5101C680.739 86.4301 678.289 82.8101 676.479 78.6501C674.669 74.5001 673.77 70.0701 673.77 65.3801V65.4001Z" fill="#0639DE"/>
<path d="M873 31.3201H885.46V99.4701H873V71.6301H796V99.4701H783.54V31.3201H796V59.1601H873V31.3201Z" fill="#0639DE"/>
<path d="M912.77 31.5601C904.07 31.5601 896.99 24.48 896.99 15.78C896.99 7.08003 904.07 0 912.77 0C921.47 0 928.55 7.08003 928.55 15.78C928.55 24.48 921.47 31.5601 912.77 31.5601ZM912.77 2.53003C905.46 2.53003 899.51 8.48004 899.51 15.79C899.51 23.1 905.46 29.05 912.77 29.05C920.08 29.05 926.03 23.1 926.03 15.79C926.03 8.48004 920.08 2.53003 912.77 2.53003Z" fill="#0639DE"/>
<path d="M906.5 8.34009H912.96C914.16 8.34009 915.19 8.5301 916.03 8.9201C916.87 9.3101 917.51 9.8701 917.95 10.6001C918.39 11.3301 918.61 12.2301 918.61 13.2901V13.3101C918.61 14.2701 918.38 15.1301 917.92 15.8901C917.46 16.6501 916.84 17.2101 916.07 17.5501L919.04 23.2401H914.77L912.22 18.1101H910.29V23.2401H906.5V8.34009ZM912.53 15.3601C913.2 15.3601 913.74 15.1701 914.14 14.8001C914.54 14.4301 914.73 13.9201 914.73 13.3001V13.2801C914.73 12.6501 914.53 12.1501 914.12 11.7701C913.71 11.3901 913.18 11.2001 912.51 11.2001H910.29V15.3601H912.53Z" fill="#0639DE"/>
</svg>
